<?xml version="1.0" standalone="no"?>
<!DOCTYPE svg PUBLIC "-//W3C//DTD SVG 20010904//EN"
 "http://www.w3.org/TR/2001/REC-SVG-20010904/DTD/svg10.dtd">
<svg version="1.0" xmlns="http://www.w3.org/2000/svg"
 width="1280.000000pt" height="1003.000000pt" viewBox="0 0 1280.000000 1003.000000"
 preserveAspectRatio="xMidYMid meet">
<metadata>
Created by potrace 1.15, written by Peter Selinger 2001-2017
</metadata>
<g transform="translate(0.000000,1003.000000) scale(0.100000,-0.100000)"
fill="#9e9e9e" stroke="none">
<path d="M6395 10021 c-22 -5 -119 -14 -215 -20 -695 -45 -1213 -252 -1601
-641 -331 -332 -548 -779 -639 -1320 -62 -372 -64 -759 -5 -1085 13 -71 23
-130 22 -130 -58 -26 -110 -108 -133 -214 -30 -133 -6 -583 45 -866 19 -104
114 -384 167 -494 46 -94 68 -127 129 -188 72 -75 72 -75 79 -141 8 -86 56
-277 97 -383 84 -220 288 -620 407 -799 72 -108 78 -120 89 -195 6 -44 12
-105 12 -136 l1 -56 -51 -11 c-72 -17 -190 -74 -267 -129 -37 -26 -137 -115
-222 -198 -167 -161 -250 -235 -345 -306 -444 -332 -1154 -560 -2215 -713
-205 -29 -556 -70 -755 -87 -77 -7 -145 -17 -152 -23 -6 -6 -50 -85 -97 -176
-200 -389 -296 -734 -296 -1065 l0 -90 -225 -237 c-166 -175 -225 -243 -225
-261 l0 -25 1003 -6 c551 -3 2455 -8 4232 -11 1777 -3 4205 -8 5398 -11 l2167
-7 0 24 c0 13 -134 426 -297 917 l-298 894 -65 29 c-156 71 -383 147 -630 210
-288 74 -610 135 -1405 268 -724 122 -665 109 -821 186 -146 73 -325 183 -439
270 -38 30 -144 120 -235 200 -294 260 -408 325 -650 370 -52 9 -101 19 -107
21 -10 2 -13 38 -13 135 l0 131 89 136 c230 356 382 670 460 952 18 65 51 235
51 261 0 5 9 9 20 9 12 0 20 7 20 18 0 9 19 31 41 47 138 101 231 251 312 502
40 122 48 164 71 358 41 353 47 432 47 585 1 164 -17 262 -56 322 l-25 37 10
291 c9 285 8 294 -16 438 -84 501 -250 970 -466 1316 -190 304 -460 578 -745
755 -99 61 -258 142 -372 187 -88 36 -382 114 -526 140 -98 18 -306 26 -360
15z"/>
</g>
</svg>
